<?xml version="1.0" standalone="no"?>
<!DOCTYPE svg PUBLIC "-//W3C//DTD SVG 20010904//EN"
 "http://www.w3.org/TR/2001/REC-SVG-20010904/DTD/svg10.dtd">
<svg version="1.0" xmlns="http://www.w3.org/2000/svg"
 width="367.000000pt" height="113.000000pt" viewBox="0 0 367.000000 113.000000"
 preserveAspectRatio="xMidYMid meet">

<g transform="translate(0.000000,113.000000) scale(0.100000,-0.100000)"
fill="#000000" stroke="none">
<path d="M632 1086 c-132 -43 -245 -134 -313 -251 -39 -67 -69 -166 -69 -226
l0 -49 518 0 519 0 -9 -62 c-11 -88 -68 -200 -134 -264 -60 -59 -149 -107
-230 -125 -154 -35 -358 83 -440 254 -19 39 -34 77 -34 84 0 10 -24 13 -91 13
l-91 0 6 -32 c22 -117 144 -273 266 -341 96 -53 165 -67 326 -67 155 0 212 11
313 61 154 76 291 281 291 436 l0 43 915 0 915 0 0 50 0 50 -916 2 -915 3 -22
65 c-61 180 -206 317 -387 365 -37 10 -104 15 -200 14 -124 0 -155 -3 -218
-23z m319 -76 c126 -38 229 -127 286 -245 55 -116 95 -105 -382 -105 -478 0
-439 -11 -380 107 59 118 159 204 283 244 74 23 116 23 193 -1z"/>
<path d="M1990 1002 c0 -4 5 -13 11 -19 6 -6 27 -73 48 -149 37 -136 39 -139
67 -142 29 -3 29 -2 58 103 16 58 33 102 37 98 4 -4 17 -52 29 -105 21 -95 23
-98 49 -98 27 0 30 6 76 140 27 77 54 145 62 151 24 20 14 29 -32 29 -46 0
-54 -7 -33 -28 9 -9 5 -34 -17 -107 -15 -53 -31 -92 -35 -88 -4 4 -18 56 -30
116 -23 103 -25 107 -50 107 -25 0 -28 -5 -55 -102 -15 -57 -31 -109 -35 -117
-4 -8 -17 25 -30 79 -18 73 -20 97 -11 111 6 10 11 21 11 24 0 3 -27 5 -60 5
-33 0 -60 -4 -60 -8z"/>
<path d="M2460 1001 c0 -5 7 -11 15 -15 12 -4 15 -29 15 -136 0 -107 -3 -132
-15 -136 -42 -16 -5 -24 98 -22 l112 3 3 43 c4 51 -15 57 -40 12 -14 -24 -24
-30 -53 -30 l-35 0 0 129 c0 76 4 132 10 136 25 15 5 25 -50 25 -33 0 -60 -4
-60 -9z"/>
<path d="M1540 507 c-73 -37 -63 -168 14 -183 45 -8 76 3 76 27 0 23 -15 25
-24 4 -7 -20 -40 -19 -57 1 -16 20 -16 109 1 129 16 19 49 19 56 0 9 -23 26
-18 22 8 -4 27 -49 34 -88 14z"/>
<path d="M1703 510 c-30 -12 -43 -41 -43 -95 0 -73 46 -108 118 -89 48 13 70
119 35 163 -20 24 -77 35 -110 21z m67 -25 c21 -25 24 -92 6 -120 -33 -50 -76
-19 -76 55 0 67 38 103 70 65z"/>
<path d="M1875 420 c0 -99 0 -100 25 -100 19 0 21 3 12 12 -7 7 -12 40 -11 82
l1 71 25 -72 c14 -42 30 -73 38 -73 8 0 23 29 37 68 20 58 23 63 26 38 2 -16
2 -51 0 -78 l-3 -48 35 0 c26 0 31 3 22 12 -16 16 -16 160 0 176 9 9 4 12 -24
12 -34 0 -36 -2 -58 -62 l-23 -63 -21 63 c-19 58 -22 62 -50 62 l-31 0 0 -100z"/>
<path d="M2128 508 c7 -7 12 -42 12 -88 0 -46 -5 -81 -12 -88 -9 -9 4 -12 60
-12 71 0 72 0 72 27 0 25 -1 25 -18 10 -10 -10 -28 -17 -40 -17 -18 0 -22 6
-22 35 0 34 20 49 35 25 12 -20 25 -9 25 20 0 29 -13 40 -25 20 -15 -24 -35
-9 -35 25 0 31 3 35 25 35 14 0 28 -7 31 -15 9 -24 24 -17 24 10 0 24 -2 25
-72 25 -56 0 -69 -3 -60 -12z"/>
<path d="M2298 508 c7 -7 12 -42 12 -88 0 -46 -5 -81 -12 -88 -9 -9 -4 -12 23
-12 34 0 35 0 31 40 -5 49 19 56 38 10 16 -37 34 -52 59 -48 19 3 18 5 -8 44
-28 40 -28 41 -10 63 24 30 24 46 -1 71 -16 16 -33 20 -82 20 -48 0 -59 -3
-50 -12z m102 -28 c14 -26 -3 -60 -30 -60 -17 0 -20 7 -20 40 0 33 3 40 20 40
10 0 24 -9 30 -20z"/>
<path d="M2652 504 c-35 -24 -28 -60 18 -92 27 -18 39 -33 37 -47 -3 -25 -39
-32 -57 -10 -17 20 -30 19 -30 -4 0 -33 68 -43 108 -15 41 28 29 64 -37 113
-16 12 -22 24 -18 34 8 21 46 22 53 2 9 -21 24 -19 24 4 0 33 -59 42 -98 15z"/>
<path d="M2788 508 c16 -16 16 -160 0 -176 -9 -9 4 -12 60 -12 71 0 72 0 72
27 0 25 -1 25 -18 10 -10 -10 -28 -17 -40 -17 -18 0 -22 6 -22 35 0 34 20 49
35 25 12 -20 25 -9 25 20 0 29 -13 40 -25 20 -15 -24 -35 -9 -35 25 0 31 3 35
25 35 14 0 28 -7 31 -15 9 -24 24 -17 24 10 0 24 -2 25 -72 25 -56 0 -69 -3
-60 -12z"/>
<path d="M2958 508 c16 -16 16 -160 0 -176 -9 -9 -4 -12 23 -12 34 0 35 0 31
40 -5 49 19 56 38 10 16 -37 34 -52 59 -48 19 3 18 5 -8 44 -28 40 -28 41 -10
63 24 30 24 46 -1 71 -16 16 -33 20 -82 20 -48 0 -59 -3 -50 -12z m102 -28
c14 -26 -3 -60 -30 -60 -17 0 -20 7 -20 40 0 33 3 40 20 40 10 0 24 -9 30 -20z"/>
<path d="M3134 498 c8 -13 25 -58 37 -100 16 -56 27 -78 38 -78 11 0 25 24 45
78 15 42 35 87 42 100 14 21 13 22 -17 22 -24 0 -29 -3 -22 -12 7 -9 3 -34
-12 -78 l-22 -65 -17 59 c-10 33 -15 67 -13 78 4 15 -1 18 -34 18 -39 0 -39
-1 -25 -22z"/>
<path d="M2490 340 c0 -13 7 -20 20 -20 13 0 20 7 20 20 0 13 -7 20 -20 20
-13 0 -20 -7 -20 -20z"/>
<path d="M3300 340 c0 -11 7 -20 15 -20 8 0 15 9 15 20 0 11 -7 20 -15 20 -8
0 -15 -9 -15 -20z"/>
</g>
</svg>
